{
    "accessors": [
        {
            "bufferView": 0,
            "byteOffset": 0,
            "componentType": 5126,
            "count": 48,
            "max": [
                1.8463679552078247,
                5.947749137878418,
                2.5599770545959473
            ],
            "min": [
                -2.901505708694458,
                2.8261611461639404,
                -2.296327590942383
            ],
            "name": "accessor_buffer_Plane_POSITION_0",
            "type": "VEC3"
        },
        {
            "bufferView": 1,
            "byteOffset": 0,
            "componentType": 5126,
            "count": 48,
            "max": [
                0.8747566938400269,
                0.8978505730628967,
                0.9583378434181213
            ],
            "min": [
                -0.9547938704490662,
                -0.9974148869514465,
                -0.8345706462860107
            ],
            "name": "accessor_buffer_Plane_NORMAL_0",
            "type": "VEC3"
        },
        {
            "bufferView": 5,
            "byteOffset": 0,
            "componentType": 5126,
            "count": 250,
            "max": [
                0.009922760538756847,
                0.7071068286895752,
                0.7071068286895752,
                0.7071068286895752
            ],
            "min": [
                -0.7071068286895752,
                -0.7070044279098511,
                -0.7070044279098511,
                -0.009922760538756847
            ],
            "name": "accessor_buffer_Plane_Plane_PlaneAction_0",
            "type": "VEC4"
        },
        {
            "bufferView": 2,
            "byteOffset": 0,
            "componentType": 5126,
            "count": 48,
            "max": [
                0.9999018907546997,
                0.9999018690505181
            ],
            "min": [
                9.813094948185608e-05,
                0.036744773387908936
            ],
            "name": "accessor_buffer_Plane_TEXCOORD_0_0",
            "type": "VEC2"
        },
        {
            "bufferView": 4,
            "byteOffset": 0,
            "componentType": 5126,
            "count": 250,
            "max": [
                10.374999999999988
            ],
            "min": [
                0
            ],
            "name": "accessor_buffer_Plane_PlaneAction_time_0",
            "type": "SCALAR"
        },
        {
            "bufferView": 3,
            "byteOffset": 0,
            "componentType": 5123,
            "count": 66,
            "max": [
                47
            ],
            "min": [
                0
            ],
            "name": "accessor_buffer_Plane_0",
            "type": "SCALAR"
        }
    ],
    "animations": [
        {
            "channels": [
                {
                    "sampler": 0,
                    "target": {
                        "node": 2,
                        "path": "rotation"
                    }
                }
            ],
            "name": "Plane_PlaneAction",
            "samplers": [
                {
                    "input": 4,
                    "interpolation": "LINEAR",
                    "output": 2
                }
            ]
        }
    ],
    "asset": {
        "copyright": "",
        "generator": "blendergltf v1.2.0",
        "version": "2.0"
    },
    "bufferViews": [
        {
            "buffer": 0,
            "byteLength": 576,
            "byteOffset": 0,
            "byteStride": 12,
            "name": "bufferView_buffer_Plane_POSITION_0",
            "target": 34962
        },
        {
            "buffer": 0,
            "byteLength": 576,
            "byteOffset": 576,
            "byteStride": 12,
            "name": "bufferView_buffer_Plane_NORMAL_0",
            "target": 34962
        },
        {
            "buffer": 0,
            "byteLength": 384,
            "byteOffset": 1152,
            "byteStride": 8,
            "name": "bufferView_buffer_Plane_TEXCOORD_0_0",
            "target": 34962
        },
        {
            "buffer": 0,
            "byteLength": 136,
            "byteOffset": 1536,
            "name": "bufferView_buffer_Plane_0",
            "target": 34963
        },
        {
            "buffer": 0,
            "byteLength": 1000,
            "byteOffset": 1672,
            "byteStride": 4,
            "name": "bufferView_buffer_Plane_PlaneAction_time_0"
        },
        {
            "buffer": 0,
            "byteLength": 4000,
            "byteOffset": 2672,
            "byteStride": 16,
            "name": "bufferView_buffer_Plane_Plane_PlaneAction_0"
        }
    ],
    "buffers": [
        {
            "byteLength": 6672,
            "name": "buffer_Object_top",
            "uri": "buffer_Object_top.bin"
        }
    ],
    "cameras": [
        {
            "name": "Camera",
            "perspective": {
                "aspectRatio": 1.703595982340029,
                "yfov": 0.5033799409866333,
                "zfar": 100.0,
                "znear": 0.10000000149011612
            },
            "type": "perspective"
        }
    ],
    "materials": [
        {
            "alphaMode": "OPAQUE",
            "doubleSided": false,
            "emissiveFactor": [
                0.0,
                0.0,
                0.0
            ],
            "name": "Material.001",
            "pbrMetallicRoughness": {
                "baseColorFactor": [
                    0.64000004529953,
                    0.06525442749261856,
                    0.3149259090423584,
                    1.0
                ],
                "metallicFactor": 0.0,
                "roughnessFactor": 1.0
            }
        }
    ],
    "meshes": [
        {
            "name": "Plane",
            "primitives": [
                {
                    "attributes": {
                        "NORMAL": 1,
                        "POSITION": 0,
                        "TEXCOORD_0": 3
                    },
                    "indices": 5,
                    "material": 0,
                    "mode": 4
                }
            ]
        }
    ],
    "nodes": [
        {
            "camera": 0,
            "name": "Camera",
            "rotation": [
                -0.09062843769788742,
                -0.8937962651252747,
                -0.2099730223417282,
                0.38578000664711
            ],
            "scale": [
                1.0,
                1.0,
                1.0
            ],
            "translation": [
                -7.481131553649902,
                5.34366512298584,
                -6.5076398849487305
            ]
        },
        {
            "name": "Lamp",
            "rotation": [
                -0.34203386306762695,
                -0.5232755541801453,
                -0.2841663062572479,
                0.7269423007965088
            ],
            "scale": [
                1.0,
                1.0,
                0.9999999403953552
            ],
            "translation": [
                -4.076245307922363,
                5.903861999511719,
                1.0054539442062378
            ]
        },
        {
            "mesh": 0,
            "name": "Plane",
            "rotation": [
                0.0,
                3.2584136988589307e-07,
                0.0,
                1.0
            ],
            "scale": [
                1.0,
                1.0,
                1.0
            ],
            "translation": [
                0.3346763551235199,
                -2.842439651489258,
                -0.015110734850168228
            ]
        }
    ],
    "scene": 0,
    "scenes": [
        {
            "extras": {
                "active_camera": 0,
                "background_color": [
                    0.05087608844041824,
                    0.05087608844041824,
                    0.05087608844041824
                ],
                "frames_per_second": 24
            },
            "name": "Scene",
            "nodes": [
                2,
                1,
                0
            ]
        }
    ]
}
