{"accessors":[{"name":"Icosphere.001_Icosphere.002-Mesh_positions","componentType":5126,"count":96,"min":[-0.19014500081539154,1.591238021850586,0.28666600584983826],"max":[0.7653830051422119,2.931535005569458,1.3348790407180786],"type":"VEC3","bufferView":0,"byteOffset":0},{"name":"Icosphere.001_Icosphere.002-Mesh_normals","componentType":5126,"count":96,"min":[-0.9768000245094299,-0.9799000024795532,-0.9736999869346619],"max":[0.9926999807357788,0.7682999968528748,0.9817000031471252],"type":"VEC3","bufferView":0,"byteOffset":1152},{"name":"Icosphere.001_Icosphere.002-Mesh_texcoords","componentType":5126,"count":96,"min":[0.00009699999645818025,0.00009699999645818025],"max":[0.9375579953193665,0.9999030232429504],"type":"VEC2","bufferView":1,"byteOffset":0},{"name":"Icosphere.001_Icosphere.002-Mesh_0_indices","componentType":5123,"count":102,"min":[0],"max":[95],"type":"SCALAR","bufferView":2,"byteOffset":0}],"asset":{"generator":"obj2gltf","version":"2.0"},"buffers":[{"name":"Rocks2a","byteLength":3276,"uri":"data:application/octet-stream;base64,"}],"bufferViews":[{"name":"bufferView_0","buffer":0,"byteLength":2304,"byteOffset":0,"byteStride":12,"target":34962},{"name":"bufferView_1","buffer":0,"byteLength":768,"byteOffset":2304,"byteStride":8,"target":34962},{"name":"bufferView_2","buffer":0,"byteLength":204,"byteOffset":3072,"target":34963}],"materials":[{"name":"Material.001","pbrMetallicRoughness":{"baseColorFactor":[0.64,0.64,0.64,1],"metallicFactor":0,"roughnessFactor":0.903921569},"emissiveFactor":[0,0,0],"alphaMode":"OPAQUE","doubleSided":false}],"meshes":[{"name":"Icosphere.001_Icosphere.002-Mesh","primitives":[{"attributes":{"POSITION":0,"NORMAL":1,"TEXCOORD_0":2},"indices":3,"material":0,"mode":4}]}],"nodes":[{"name":"Icosphere.001_Icosphere.002","mesh":0}],"scene":0,"scenes":[{"nodes":[0]}]}
