{
    "accessors": [
        {
            "bufferView": 2,
            "byteOffset": 0,
            "componentType": 5126,
            "count": 96,
            "max": [
                0.9375577569007874,
                0.9999031867992016
            ],
            "min": [
                9.681320079835132e-05,
                9.679794311523438e-05
            ],
            "name": "accessor_buffer_Icosphere.002_TEXCOORD_0_0",
            "type": "VEC2"
        },
        {
            "bufferView": 3,
            "byteOffset": 0,
            "componentType": 5123,
            "count": 102,
            "max": [
                95
            ],
            "min": [
                0
            ],
            "name": "accessor_buffer_Icosphere.002_0",
            "type": "SCALAR"
        },
        {
            "bufferView": 1,
            "byteOffset": 0,
            "componentType": 5126,
            "count": 96,
            "max": [
                0.9678602814674377,
                0.9987819194793701,
                0.9153257012367249
            ],
            "min": [
                -0.9969690442085266,
                -0.8505876660346985,
                -1.0
            ],
            "name": "accessor_buffer_Icosphere.002_NORMAL_0",
            "type": "VEC3"
        },
        {
            "bufferView": 0,
            "byteOffset": 0,
            "componentType": 5126,
            "count": 96,
            "max": [
                1.0101672410964966,
                0.8506543636322021,
                1.1552019119262695
            ],
            "min": [
                -0.8506478667259216,
                -1.679165005683899,
                -0.8661278486251831
            ],
            "name": "accessor_buffer_Icosphere.002_POSITION_0",
            "type": "VEC3"
        }
    ],
    "asset": {
        "copyright": "",
        "generator": "blendergltf v1.2.0",
        "version": "2.0"
    },
    "bufferViews": [
        {
            "buffer": 0,
            "byteLength": 1152,
            "byteOffset": 0,
            "byteStride": 12,
            "name": "bufferView_buffer_Icosphere.002_POSITION_0",
            "target": 34962
        },
        {
            "buffer": 0,
            "byteLength": 1152,
            "byteOffset": 1152,
            "byteStride": 12,
            "name": "bufferView_buffer_Icosphere.002_NORMAL_0",
            "target": 34962
        },
        {
            "buffer": 0,
            "byteLength": 768,
            "byteOffset": 2304,
            "byteStride": 8,
            "name": "bufferView_buffer_Icosphere.002_TEXCOORD_0_0",
            "target": 34962
        },
        {
            "buffer": 0,
            "byteLength": 208,
            "byteOffset": 3072,
            "name": "bufferView_buffer_Icosphere.002_0",
            "target": 34963
        }
    ],
    "buffers": [
        {
            "byteLength": 3280,
            "name": "buffer_ROCK_TEST_1",
            "uri": "buffer_ROCK_TEST_1.bin"
        }
    ],
    "cameras": [
        {
            "name": "Camera",
            "perspective": {
                "aspectRatio": 1.703595982340029,
                "yfov": 0.5033799409866333,
                "zfar": 100.0,
                "znear": 0.10000000149011612
            },
            "type": "perspective"
        }
    ],
    "materials": [
        {
            "alphaMode": "OPAQUE",
            "doubleSided": false,
            "emissiveFactor": [
                0.0,
                0.0,
                0.0
            ],
            "name": "Material.001",
            "pbrMetallicRoughness": {
                "baseColorFactor": [
                    0.64000004529953,
                    0.64000004529953,
                    0.64000004529953,
                    1.0
                ],
                "metallicFactor": 0.0,
                "roughnessFactor": 1.0
            }
        }
    ],
    "meshes": [
        {
            "name": "Icosphere.002",
            "primitives": [
                {
                    "attributes": {
                        "NORMAL": 2,
                        "POSITION": 3,
                        "TEXCOORD_0": 0
                    },
                    "indices": 1,
                    "material": 0,
                    "mode": 4
                }
            ]
        }
    ],
    "nodes": [
        {
            "camera": 0,
            "name": "Camera",
            "rotation": [
                -0.08598660677671432,
                0.14324268698692322,
                0.012490586377680302,
                0.9858660101890564
            ],
            "scale": [
                1.0,
                1.0,
                1.0
            ],
            "translation": [
                1.692649006843567,
                3.487614393234253,
                5.756982803344727
            ]
        },
        {
            "mesh": 0,
            "name": "Icosphere.001",
            "rotation": [
                -0.9933886528015137,
                -0.0024266093969345093,
                -0.02137526124715805,
                0.11276590079069138
            ],
            "scale": [
                0.9999999403953552,
                1.0,
                0.9999999403953552
            ],
            "translation": [
                0.0,
                0.0,
                0.0
            ]
        }
    ],
    "scene": 0,
    "scenes": [
        {
            "extras": {
                "active_camera": 0,
                "background_color": [
                    0.05087608844041824,
                    0.05087608844041824,
                    0.05087608844041824
                ],
                "frames_per_second": 24
            },
            "name": "Scene",
            "nodes": [
                0,
                1
            ]
        }
    ]
}
