{
    "accessors": [
        {
            "bufferView": 2,
            "byteOffset": 0,
            "componentType": 5126,
            "count": 96,
            "max": [
                0.9375577569007874,
                0.9999031867992016
            ],
            "min": [
                9.681320079835132e-05,
                9.679794311523438e-05
            ],
            "name": "accessor_buffer_Icosphere.002_TEXCOORD_0_0",
            "type": "VEC2"
        },
        {
            "bufferView": 3,
            "byteOffset": 0,
            "componentType": 5123,
            "count": 102,
            "max": [
                95
            ],
            "min": [
                0
            ],
            "name": "accessor_buffer_Icosphere.002_0",
            "type": "SCALAR"
        },
        {
            "bufferView": 1,
            "byteOffset": 0,
            "componentType": 5126,
            "count": 96,
            "max": [
                0.9678602814674377,
                0.9987819194793701,
                0.9153257012367249
            ],
            "min": [
                -0.9969690442085266,
                -0.8505876660346985,
                -1.0
            ],
            "name": "accessor_buffer_Icosphere.002_NORMAL_0",
            "type": "VEC3"
        },
        {
            "bufferView": 0,
            "byteOffset": 0,
            "componentType": 5126,
            "count": 96,
            "max": [
                1.0101672410964966,
                0.8506543636322021,
                1.1552019119262695
            ],
            "min": [
                -0.8506478667259216,
                -1.679165005683899,
                -0.8661278486251831
            ],
            "name": "accessor_buffer_Icosphere.002_POSITION_0",
            "type": "VEC3"
        }
    ],
    "asset": {
        "copyright": "",
        "generator": "blendergltf v1.2.0",
        "version": "2.0"
    },
    "bufferViews": [
        {
            "buffer": 0,
            "byteLength": 1152,
            "byteOffset": 0,
            "byteStride": 12,
            "name": "bufferView_buffer_Icosphere.002_POSITION_0",
            "target": 34962
        },
        {
            "buffer": 0,
            "byteLength": 1152,
            "byteOffset": 1152,
            "byteStride": 12,
            "name": "bufferView_buffer_Icosphere.002_NORMAL_0",
            "target": 34962
        },
        {
            "buffer": 0,
            "byteLength": 768,
            "byteOffset": 2304,
            "byteStride": 8,
            "name": "bufferView_buffer_Icosphere.002_TEXCOORD_0_0",
            "target": 34962
        },
        {
            "buffer": 0,
            "byteLength": 208,
            "byteOffset": 3072,
            "name": "bufferView_buffer_Icosphere.002_0",
            "target": 34963
        }
    ],
    "buffers": [
        {
            "byteLength": 3280,
            "name": "buffer_ROCK_TEST_2",
            "uri": "buffer_ROCK_TEST_2.bin"
        }
    ],
    "cameras": [
        {
            "name": "Camera",
            "perspective": {
                "aspectRatio": 1.703595982340029,
                "yfov": 0.5033799409866333,
                "zfar": 100.0,
                "znear": 0.10000000149011612
            },
            "type": "perspective"
        }
    ],
    "materials": [
        {
            "alphaMode": "OPAQUE",
            "doubleSided": false,
            "emissiveFactor": [
                0.0,
                0.0,
                0.0
            ],
            "name": "Material.001",
            "pbrMetallicRoughness": {
                "baseColorFactor": [
                    0.64000004529953,
                    0.64000004529953,
                    0.64000004529953,
                    1.0
                ],
                "metallicFactor": 0.0,
                "roughnessFactor": 1.0
            }
        }
    ],
    "meshes": [
        {
            "name": "Icosphere.002",
            "primitives": [
                {
                    "attributes": {
                        "NORMAL": 2,
                        "POSITION": 3,
                        "TEXCOORD_0": 0
                    },
                    "indices": 1,
                    "material": 0,
                    "mode": 4
                }
            ]
        }
    ],
    "nodes": [
        {
            "name": "Area",
            "rotation": [
                1.0994539271431042e-16,
                0.009653435088694096,
                0.9999535083770752,
                1.0994539271431042e-16
            ],
            "scale": [
                1.0,
                1.0,
                1.0
            ],
            "translation": [
                0.06704509258270264,
                0.39192309975624084,
                7.98400354385376
            ]
        },
        {
            "name": "Area.001",
            "rotation": [
                -1.1090240759580977e-16,
                0.9999994039535522,
                0.001079321256838739,
                -1.1090240097836487e-16
            ],
            "scale": [
                1.0,
                1.0,
                1.0
            ],
            "translation": [
                0.06704509258270264,
                0.39192309975624084,
                -11.20168399810791
            ]
        },
        {
            "name": "Area.002",
            "rotation": [
                -0.0007685478194616735,
                0.7021123766899109,
                0.0007577792275696993,
                0.7120653390884399
            ],
            "scale": [
                1.0,
                1.0,
                1.0
            ],
            "translation": [
                9.427091598510742,
                0.39192309975624084,
                0.23605775833129883
            ]
        },
        {
            "name": "Area.003",
            "rotation": [
                0.7120325565338135,
                -0.006777803413569927,
                -0.7020800709724426,
                -0.006873898673802614
            ],
            "scale": [
                1.0,
                0.9999999403953552,
                1.0
            ],
            "translation": [
                -9.756696701049805,
                0.39192309975624084,
                -0.033985137939453125
            ]
        },
        {
            "name": "Area.004",
            "rotation": [
                9.308842459488008e-17,
                0.15019096434116364,
                0.9886570572853088,
                9.308842459488008e-17
            ],
            "scale": [
                1.0,
                1.0,
                1.0
            ],
            "translation": [
                0.09501427412033081,
                2.8557910919189453,
                7.013445854187012
            ]
        },
        {
            "name": "Area.005",
            "rotation": [
                -0.9820992350578308,
                -0.003340555354952812,
                -0.008950218558311462,
                0.18812231719493866
            ],
            "scale": [
                1.0,
                1.0,
                1.0
            ],
            "translation": [
                0.13832005858421326,
                4.316217422485352,
                -8.051512718200684
            ]
        },
        {
            "camera": 0,
            "name": "Camera",
            "rotation": [
                -0.2413523644208908,
                0.12487659603357315,
                0.031326957046985626,
                0.961859405040741
            ],
            "scale": [
                1.0,
                1.0,
                1.0
            ],
            "translation": [
                1.692649006843567,
                3.487614393234253,
                5.756982803344727
            ]
        },
        {
            "mesh": 0,
            "name": "Icosphere.001",
            "rotation": [
                -0.9933886528015137,
                -0.0024266093969345093,
                -0.02137526124715805,
                0.11276590079069138
            ],
            "scale": [
                0.9999999403953552,
                1.0,
                0.9999999403953552
            ],
            "translation": [
                0.0,
                0.0,
                0.0
            ]
        },
        {
            "name": "Sun",
            "rotation": [
                0.0,
                0.7071068286895752,
                0.7071068286895752,
                0.0
            ],
            "scale": [
                1.0,
                1.0,
                1.0
            ],
            "translation": [
                1.1991246938705444,
                5.970671653747559,
                -0.04820004105567932
            ]
        }
    ],
    "scene": 0,
    "scenes": [
        {
            "extras": {
                "active_camera": 0,
                "background_color": [
                    0.05087608844041824,
                    0.05087608844041824,
                    0.05087608844041824
                ],
                "frames_per_second": 24
            },
            "name": "Scene",
            "nodes": [
                5,
                4,
                3,
                2,
                1,
                0,
                8,
                6,
                7
            ]
        }
    ]
}
