{
    "accessors": [
        {
            "bufferView": 0,
            "byteOffset": 0,
            "componentType": 5126,
            "count": 1440,
            "max": [
                4.933518409729004,
                1.9284194707870483,
                6.759837627410889
            ],
            "min": [
                -1.905685305595398,
                -2.889430522918701,
                -2.123957633972168
            ],
            "name": "accessor_buffer_Icosphere.007_POSITION_0",
            "type": "VEC3"
        },
        {
            "bufferView": 3,
            "byteOffset": 0,
            "componentType": 5123,
            "count": 1530,
            "max": [
                1439
            ],
            "min": [
                0
            ],
            "name": "accessor_buffer_Icosphere.007_0",
            "type": "SCALAR"
        },
        {
            "bufferView": 1,
            "byteOffset": 0,
            "componentType": 5126,
            "count": 1440,
            "max": [
                0.9907094240188599,
                0.9996649622917175,
                0.9963615536689758
            ],
            "min": [
                -0.999280571937561,
                -0.99565190076828,
                -1.0
            ],
            "name": "accessor_buffer_Icosphere.007_NORMAL_0",
            "type": "VEC3"
        },
        {
            "bufferView": 2,
            "byteOffset": 0,
            "componentType": 5126,
            "count": 1440,
            "max": [
                0.9375577569007874,
                0.9999031867992016
            ],
            "min": [
                9.681320079835132e-05,
                9.679794311523438e-05
            ],
            "name": "accessor_buffer_Icosphere.007_TEXCOORD_0_0",
            "type": "VEC2"
        }
    ],
    "asset": {
        "copyright": "",
        "generator": "blendergltf v1.2.0",
        "version": "2.0"
    },
    "bufferViews": [
        {
            "buffer": 0,
            "byteLength": 17280,
            "byteOffset": 0,
            "byteStride": 12,
            "name": "bufferView_buffer_Icosphere.007_POSITION_0",
            "target": 34962
        },
        {
            "buffer": 0,
            "byteLength": 17280,
            "byteOffset": 17280,
            "byteStride": 12,
            "name": "bufferView_buffer_Icosphere.007_NORMAL_0",
            "target": 34962
        },
        {
            "buffer": 0,
            "byteLength": 11520,
            "byteOffset": 34560,
            "byteStride": 8,
            "name": "bufferView_buffer_Icosphere.007_TEXCOORD_0_0",
            "target": 34962
        },
        {
            "buffer": 0,
            "byteLength": 3064,
            "byteOffset": 46080,
            "name": "bufferView_buffer_Icosphere.007_0",
            "target": 34963
        }
    ],
    "buffers": [
        {
            "byteLength": 49144,
            "name": "buffer_Rocks_Cluster_unwrap_br",
            "uri": "buffer_Rocks_Cluster_unwrap_br.bin"
        }
    ],
    "cameras": [
        {
            "name": "Camera",
            "perspective": {
                "aspectRatio": 1.703595982340029,
                "yfov": 0.5033799409866333,
                "zfar": 100.0,
                "znear": 0.10000000149011612
            },
            "type": "perspective"
        }
    ],
    "materials": [
        {
            "alphaMode": "OPAQUE",
            "doubleSided": false,
            "emissiveFactor": [
                0.0,
                0.0,
                0.0
            ],
            "name": "Material",
            "pbrMetallicRoughness": {
                "baseColorFactor": [
                    0.3737499713897705,
                    0.022136256098747253,
                    0.1161012053489685,
                    1.0
                ],
                "metallicFactor": 0.0,
                "roughnessFactor": 1.0
            }
        }
    ],
    "meshes": [
        {
            "name": "Icosphere.007",
            "primitives": [
                {
                    "attributes": {
                        "NORMAL": 2,
                        "POSITION": 0,
                        "TEXCOORD_0": 3
                    },
                    "indices": 1,
                    "material": 0,
                    "mode": 4
                }
            ]
        }
    ],
    "nodes": [
        {
            "name": "Area",
            "rotation": [
                1.0994539271431042e-16,
                0.009653435088694096,
                0.9999535083770752,
                1.0994539271431042e-16
            ],
            "scale": [
                1.0,
                1.0,
                1.0
            ],
            "translation": [
                0.06704509258270264,
                0.39192309975624084,
                7.98400354385376
            ]
        },
        {
            "name": "Area.001",
            "rotation": [
                -1.1090240759580977e-16,
                0.9999994039535522,
                0.001079321256838739,
                -1.1090240097836487e-16
            ],
            "scale": [
                1.0,
                1.0,
                1.0
            ],
            "translation": [
                0.06704509258270264,
                0.39192309975624084,
                -11.20168399810791
            ]
        },
        {
            "name": "Area.002",
            "rotation": [
                -0.0007685478194616735,
                0.7021123766899109,
                0.0007577792275696993,
                0.7120653390884399
            ],
            "scale": [
                1.0,
                1.0,
                1.0
            ],
            "translation": [
                9.427091598510742,
                0.39192309975624084,
                0.23605775833129883
            ]
        },
        {
            "name": "Area.003",
            "rotation": [
                0.7120325565338135,
                -0.006777803413569927,
                -0.7020800709724426,
                -0.006873898673802614
            ],
            "scale": [
                1.0,
                0.9999999403953552,
                1.0
            ],
            "translation": [
                -9.756696701049805,
                0.39192309975624084,
                -0.033985137939453125
            ]
        },
        {
            "name": "Area.004",
            "rotation": [
                9.308842459488008e-17,
                0.15019096434116364,
                0.9886570572853088,
                9.308842459488008e-17
            ],
            "scale": [
                1.0,
                1.0,
                1.0
            ],
            "translation": [
                0.09501427412033081,
                2.8557910919189453,
                7.013445854187012
            ]
        },
        {
            "name": "Area.005",
            "rotation": [
                -0.9820992350578308,
                -0.003340555354952812,
                -0.008950218558311462,
                0.18812231719493866
            ],
            "scale": [
                1.0,
                1.0,
                1.0
            ],
            "translation": [
                0.13832005858421326,
                4.316217422485352,
                -8.051512718200684
            ]
        },
        {
            "camera": 0,
            "name": "Camera",
            "rotation": [
                -0.2413523644208908,
                0.12487659603357315,
                0.031326957046985626,
                0.961859405040741
            ],
            "scale": [
                1.0,
                1.0,
                1.0
            ],
            "translation": [
                1.692649006843567,
                3.487614393234253,
                5.756982803344727
            ]
        },
        {
            "mesh": 0,
            "name": "Icosphere.007",
            "rotation": [
                -0.8274850845336914,
                0.19515825808048248,
                -0.512988805770874,
                -0.11842356622219086
            ],
            "scale": [
                1.0,
                0.9999999403953552,
                0.9999999403953552
            ],
            "translation": [
                -3.9997341632843018,
                0.7315131425857544,
                -1.9594374895095825
            ]
        },
        {
            "name": "Sun",
            "rotation": [
                0.0,
                0.7071068286895752,
                0.7071068286895752,
                0.0
            ],
            "scale": [
                1.0,
                1.0,
                1.0
            ],
            "translation": [
                1.1991246938705444,
                5.970671653747559,
                -0.04820004105567932
            ]
        }
    ],
    "scene": 0,
    "scenes": [
        {
            "extras": {
                "active_camera": 0,
                "background_color": [
                    0.05087608844041824,
                    0.05087608844041824,
                    0.05087608844041824
                ],
                "frames_per_second": 24
            },
            "name": "Scene",
            "nodes": [
                7,
                5,
                4,
                3,
                2,
                1,
                0,
                8,
                6
            ]
        }
    ]
}
